<svg xmlns="http://www.w3.org/2000/svg" version="1.1" xmlns:xlink="http://www.w3.org/1999/xlink" xmlns:svgjs="http://svgjs.com/svgjs" width="1440" height="560" preserveAspectRatio="none" viewBox="0 0 1440 560">
    <g mask="url(&quot;#SvgjsMask1012&quot;)" fill="none">
        <rect width="1440" height="560" x="0" y="0" fill="rgba(36, 18, 59, 1)"></rect>
        <path d="M0,390.206C72.967,398.259,136.38,347.246,201.959,314.255C275.407,277.306,369.448,259.035,406.571,185.675C443.787,112.131,421.455,19.923,389.31,-55.974C361.039,-122.724,281.414,-148.448,239.894,-207.869C191.018,-277.818,208.589,-407.502,126.765,-431.72C45.011,-455.918,-10.489,-337.012,-89.678,-305.416C-157.971,-278.167,-241.784,-304.319,-301.177,-260.972C-365.736,-213.854,-407.473,-139.123,-424.517,-61.036C-442.232,20.125,-447.515,115.118,-397.791,181.665C-348.824,247.2,-247.662,234.643,-175.207,272.627C-111.626,305.959,-71.355,382.331,0,390.206" fill="#1d0e2f"></path>
        <path d="M1440 959.675C1536.929 983.095 1636.85 1047.934 1728.84 1009.444 1820.989 970.8879999999999 1863.887 862.9169999999999 1896.721 768.577 1927.612 679.819 1931.76 583.72 1908.719 492.608 1887.104 407.135 1830.338 338.40700000000004 1771.363 272.872 1713.378 208.437 1648.576 153.57 1570.233 116.469 1480.818 74.125 1384.309 19.339000000000055 1288.556 44.22900000000004 1192.385 69.22800000000001 1139.31 168.01799999999997 1076.309 244.86 1015.019 319.616 935.384 389.898 926.249 486.134 917.213 581.326 971.101 671.467 1028.557 747.9 1078.592 814.461 1154.767 850.517 1228.805 888.625 1296.211 923.3199999999999 1366.31 941.87 1440 959.675" fill="#2b1647"></path>
    </g>
    <defs>
        <mask id="SvgjsMask1012">
            <rect width="1440" height="560" fill="#ffffff"></rect>
        </mask>
    </defs>
</svg>